<svg xmlns="http://www.w3.org/2000/svg" viewBox="0 0 900 640"><ellipse cx="450" cy="560" rx="280" ry="26" fill="#0a0d12" opacity=".14"/><g transform="translate(80 160)"><rect width="190" height="230" rx="30" fill="#232c3a"/><rect x="40" y="28" width="110" height="108" rx="17" fill="#f2c84b"/><rect x="54" y="180" width="82" height="12" rx="6" fill="#f8faff" opacity=".7"/><path d="M190 65h55v100h-55" fill="none" stroke="#d7dde5" stroke-width="25" stroke-linecap="round"/></g><g transform="translate(310 90) rotate(10)"><rect width="240" height="310" rx="34" fill="#f8faff" stroke="#a1aab8" stroke-width="4"/><rect x="18" y="18" width="204" height="274" rx="24" fill="#cfd8df"/><circle cx="170" cy="60" r="28" fill="#252f3d"/><circle cx="170" cy="60" r="12" fill="#f2c84b"/></g><g transform="translate(550 185)"><rect width="260" height="170" rx="32" fill="#242f3f"/><circle cx="130" cy="85" r="54" fill="#f2c84b" opacity=".8"/><circle cx="130" cy="85" r="32" fill="none" stroke="#ffe59a" stroke-width="7"/></g><path d="M90 445c150-92 245 76 384-10 125-77 190-55 320 14" fill="none" stroke="#f2c84b" stroke-width="14" stroke-linecap="round"/><circle cx="90" cy="445" r="17" fill="#2a3340" stroke="#f2c84b" stroke-width="7"/><circle cx="794" cy="449" r="17" fill="#2a3340" stroke="#f2c84b" stroke-width="7"/></svg>
