<svg xmlns="http://www.w3.org/2000/svg" viewBox="0 0 860 560"><ellipse cx="430" cy="495" rx="280" ry="22" fill="#f2c84b" opacity=".2"/><g transform="translate(70 130)"><rect width="180" height="220" rx="26" fill="#263043"/><rect x="37" y="26" width="106" height="101" rx="15" fill="#f2c84b"/><path d="M180 58h52v108h-52" fill="none" stroke="#dbe1e5" stroke-width="22" stroke-linecap="round"/></g><g transform="translate(300 75) rotate(8)"><rect width="230" height="290" rx="34" fill="#f5f8fa" stroke="#a2acba" stroke-width="5"/><rect x="19" y="20" width="192" height="250" rx="22" fill="#cbd6dc"/><circle cx="157" cy="59" r="28" fill="#202a39"/><circle cx="157" cy="59" r="12" fill="#f2c84b"/></g><g transform="translate(570 130)"><rect width="220" height="160" rx="30" fill="#263043"/><circle cx="110" cy="80" r="52" fill="#f2c84b" opacity=".82"/><circle cx="110" cy="80" r="31" fill="none" stroke="#ffe59a" stroke-width="7"/></g><path d="M50 435c140-84 240 62 366-10 128-72 213-47 375 12" fill="none" stroke="#f2c84b" stroke-width="14" stroke-linecap="round"/></svg>
