<svg xmlns="http://www.w3.org/2000/svg" viewBox="0 0 900 720"><defs><linearGradient id="phone" x1="0" y1="0" x2="1" y2="1"><stop stop-color="#39465c"/><stop offset="1" stop-color="#0f1420"/></linearGradient><linearGradient id="mint" x1="0" y1="0" x2="1" y2="1"><stop stop-color="#d8fff1"/><stop offset="1" stop-color="#76c8b4"/></linearGradient></defs><ellipse cx="480" cy="635" rx="250" ry="32" fill="#3d63ff" opacity=".15"/><g transform="translate(115 50) rotate(-8 210 260)"><rect width="350" height="500" rx="42" fill="url(#phone)" stroke="#8da2c9" stroke-width="5"/><rect x="21" y="24" width="308" height="452" rx="30" fill="#111a29"/><path d="M57 106c65-45 148-50 244-9v250c-95 37-176 27-244-16z" fill="#315bff" opacity=".64"/><path d="M53 372c78-48 159-49 249-9" fill="none" stroke="#8ce3c4" stroke-width="10" opacity=".7"/><rect x="22" y="25" width="306" height="452" rx="30" fill="none" stroke="#fff" stroke-opacity=".28" stroke-width="4"/></g><g transform="translate(350 50) rotate(9 210 150)"><rect width="430" height="280" rx="22" fill="#bbc5d0" stroke="#f8faff" stroke-width="5"/><rect x="18" y="16" width="394" height="226" rx="14" fill="#1a2944"/><path d="M36 196 188 46l82 77 46-49 84 122z" fill="#3d63ff" opacity=".8"/><path d="M36 196 188 46l82 77" fill="none" stroke="#8ce3c4" stroke-width="7"/><path d="M72 280h290l-40 24H112z" fill="#98a4b3"/></g><g transform="translate(475 363) rotate(-3)"><rect width="250" height="150" rx="34" fill="#d2d9e1"/><rect x="24" y="24" width="202" height="102" rx="26" fill="#0c1320"/><circle cx="126" cy="75" r="30" fill="#3d63ff" opacity=".7"/><path d="M126 58v34M109 75h34" stroke="#8ce3c4" stroke-width="6"/></g><g transform="translate(705 160) rotate(12)"><rect width="90" height="140" rx="42" fill="#202a39"/><rect x="25" y="28" width="40" height="84" rx="18" fill="#ff806f"/><circle cx="45" cy="49" r="6" fill="#f8faff"/></g></svg>
