<svg xmlns="http://www.w3.org/2000/svg" viewBox="0 0 800 620"><rect width="800" height="620" rx="34" fill="#202b36"/><path d="M0 484h800v136H0z" fill="#111820"/><g transform="translate(155 170)"><path d="m0 80 245-92 246 92-246 100z" fill="#c0a57e"/><path d="M0 80v218l245 98V180z" fill="#a58761"/><path d="M491 80v218l-246 98V180z" fill="#8e704d"/><path d="m0 80 245-92 246 92-246 100z" fill="#e3c38d"/><g transform="translate(44 63) rotate(-10)"><rect width="120" height="200" rx="22" fill="#2b3851"/><rect x="10" y="10" width="100" height="180" rx="16" fill="#3d63ff" opacity=".8"/></g><g transform="translate(187 38) rotate(8)"><rect width="120" height="200" rx="22" fill="#344055"/><rect x="10" y="10" width="100" height="180" rx="16" fill="#8ce3c4" opacity=".72"/></g><g transform="translate(332 66) rotate(-2)"><rect width="120" height="200" rx="22" fill="#2b3851"/><rect x="10" y="10" width="100" height="180" rx="16" fill="#ff806f" opacity=".78"/></g></g><path d="M106 120h120M574 120h120" stroke="#8ce3c4" stroke-width="4" opacity=".4"/></svg>
