<svg xmlns="http://www.w3.org/2000/svg" viewBox="0 0 760 580"><ellipse cx="380" cy="500" rx="230" ry="22" fill="#ff806f" opacity=".2"/><g transform="translate(145 24)"><rect x="100" width="150" height="160" rx="65" fill="#263043"/><rect y="105" width="350" height="270" rx="90" fill="#334157" stroke="#ff806f" stroke-width="6"/><rect x="27" y="132" width="296" height="215" rx="68" fill="#111a27"/><circle cx="175" cy="238" r="73" fill="#ff806f" opacity=".8"/><circle cx="175" cy="238" r="46" fill="none" stroke="#ffe0d9" stroke-width="10"/><path d="M175 189v49l34 18" fill="none" stroke="#ffe0d9" stroke-width="10" stroke-linecap="round"/><rect x="100" y="365" width="150" height="145" rx="65" fill="#263043"/></g><g transform="translate(520 175)"><path d="M0 55c0-30 24-52 54-52s54 22 54 52v100c0 24-18 42-42 42H42c-24 0-42-18-42-42z" fill="#efaaa1"/><path d="M25 68c0-15 12-27 29-27s29 12 29 27v79c0 10-8 18-18 18H43c-10 0-18-8-18-18z" fill="#263043"/></g></svg>
