<svg xmlns="http://www.w3.org/2000/svg" viewBox="0 0 800 620"><rect width="800" height="620" rx="34" fill="#18212d"/><path d="M0 470h800v150H0z" fill="#10161f"/><g transform="translate(260 78) rotate(-8)"><rect width="280" height="470" rx="42" fill="#7b8aa0"/><rect x="17" y="18" width="246" height="434" rx="31" fill="#263f69"/><path d="M35 228 230 110v262L35 430z" fill="#3d63ff" opacity=".6"/><circle cx="76" cy="82" r="20" fill="#101824"/><path d="M63 82h26M76 69v26" stroke="#8ce3c4" stroke-width="4"/></g><path d="M185 394c-54-38-111-2-158 57 62 55 147 58 224 2Z" fill="#b0bbc8"/><path d="M615 400c48-34 112-15 156 42-64 45-126 43-193 4Z" fill="#b0bbc8"/><path d="M164 408h56M591 413h67" stroke="#8ce3c4" stroke-width="8" stroke-linecap="round"/><path d="M80 76h120M600 92h120" stroke="#3d63ff" stroke-width="3" opacity=".5"/></svg>
