<svg xmlns="http://www.w3.org/2000/svg" viewBox="0 0 820 700"><defs><linearGradient id="s" x1="0" y1="0" x2="1" y2="1"><stop stop-color="#6783ff"/><stop offset="1" stop-color="#131a2b"/></linearGradient></defs><ellipse cx="410" cy="625" rx="220" ry="28" fill="#10141b" opacity=".16"/><g transform="translate(170 60) rotate(-17)"><rect width="250" height="455" rx="35" fill="#acb8ce"/><rect x="13" y="13" width="224" height="429" rx="27" fill="#1b2640"/><path d="M25 215 120 62l104 190v180H25z" fill="url(#s)" opacity=".9"/><rect x="38" y="44" width="72" height="62" rx="18" fill="#26354f"/><circle cx="61" cy="67" r="12" fill="#111722"/><circle cx="89" cy="84" r="12" fill="#111722"/></g><g transform="translate(355 33) rotate(7)"><rect width="270" height="500" rx="38" fill="#283346"/><rect x="15" y="15" width="240" height="470" rx="29" fill="#0f1727"/><path d="M29 160 216 68v330L29 435z" fill="#3d63ff" opacity=".76"/><path d="M29 382 216 260" stroke="#8ce3c4" stroke-width="8"/><rect x="38" y="32" width="72" height="61" rx="18" fill="#34445f"/><circle cx="62" cy="55" r="12" fill="#101824"/><circle cx="91" cy="74" r="12" fill="#101824"/></g><g transform="translate(80 220) rotate(-40)"><rect width="200" height="350" rx="30" fill="#6f7a90"/><rect x="14" y="14" width="172" height="322" rx="22" fill="#1a2130"/></g></svg>
