<svg xmlns="http://www.w3.org/2000/svg" viewBox="0 0 880 680"><ellipse cx="450" cy="575" rx="250" ry="28" fill="#0a0d12" opacity=".14"/><g transform="translate(108 70) rotate(-7)"><rect width="360" height="470" rx="30" fill="#d7e4e1" stroke="#4e8677" stroke-width="4"/><rect x="20" y="20" width="320" height="430" rx="21" fill="#15252a"/><path d="M42 190 220 54l97 103v232H42z" fill="#8ce3c4" opacity=".72"/><rect x="62" y="76" width="120" height="18" rx="9" fill="#d8fff1" opacity=".8"/><rect x="62" y="114" width="210" height="10" rx="5" fill="#d8fff1" opacity=".35"/></g><g transform="translate(400 225)"><rect width="370" height="220" rx="24" fill="#b7c2c7"/><rect x="18" y="17" width="334" height="170" rx="14" fill="#182a34"/><path d="M40 158 142 62l58 56 51-43 87 83z" fill="#8ce3c4" opacity=".76"/><path d="M0 220h370l-52 34H54z" fill="#91a0a5"/><rect x="134" y="232" width="102" height="11" rx="5" fill="#4f5e64"/></g></svg>
