<svg xmlns="http://www.w3.org/2000/svg" viewBox="0 0 1200 720"><rect width="1200" height="720" fill="#111820"/><path d="M0 150h1200M0 350h1200M0 550h1200M250 0v720M600 0v720M950 0v720" stroke="#2e3c4c" stroke-width="3"/><g fill="#26364d" stroke="#3d63ff" stroke-width="3"><rect x="34" y="184" width="178" height="120" rx="14"/><rect x="286" y="184" width="178" height="120" rx="14"/><rect x="636" y="184" width="178" height="120" rx="14"/><rect x="986" y="184" width="178" height="120" rx="14"/><rect x="34" y="384" width="178" height="120" rx="14"/><rect x="636" y="384" width="178" height="120" rx="14"/><rect x="986" y="384" width="178" height="120" rx="14"/></g><g fill="#8ce3c4" opacity=".7"><rect x="80" y="220" width="82" height="48" rx="8"/><rect x="332" y="220" width="82" height="48" rx="8"/><rect x="682" y="220" width="82" height="48" rx="8"/><rect x="1032" y="220" width="82" height="48" rx="8"/></g><path d="M0 610h1200" stroke="#3d63ff" stroke-width="8" opacity=".65"/></svg>
