<svg xmlns="http://www.w3.org/2000/svg" viewBox="0 0 820 660"><ellipse cx="400" cy="540" rx="230" ry="26" fill="#0a0d12" opacity=".15"/><g transform="translate(220 40)"><rect x="78" y="0" width="130" height="210" rx="62" fill="#242f40"/><rect x="0" y="125" width="286" height="220" rx="70" fill="#313f52" stroke="#ff806f" stroke-width="5"/><rect x="23" y="148" width="240" height="174" rx="52" fill="#101826"/><circle cx="143" cy="235" r="58" fill="#ff806f" opacity=".85"/><circle cx="143" cy="235" r="35" fill="none" stroke="#ffe0d9" stroke-width="8"/><path d="M143 201v34l23 16" fill="none" stroke="#ffe0d9" stroke-width="8" stroke-linecap="round"/><rect x="78" y="335" width="130" height="190" rx="62" fill="#242f40"/></g><g transform="translate(575 230)"><path d="M0 70c0-38 28-64 63-64s63 26 63 64v136c0 29-21 51-48 51H48c-27 0-48-22-48-51z" fill="#f0aaa0"/><path d="M28 84c0-21 16-36 35-36s35 15 35 36v110c0 13-10 23-23 23H51c-13 0-23-10-23-23z" fill="#202a39"/><circle cx="63" cy="117" r="13" fill="#ff806f"/></g></svg>
