<svg xmlns="http://www.w3.org/2000/svg" viewBox="0 0 900 430"><path d="M80 220c120-150 180-104 280-72s146-35 236-42 122 92 224 89M82 220c122 34 164 113 266 112s144-79 244-84 160 32 234 101" fill="none" stroke="#8ce3c4" stroke-opacity=".36" stroke-width="2"/><path d="M80 220c78 45 128-38 216-32s122 104 220 98 136-87 300-50" fill="none" stroke="#3d63ff" stroke-opacity=".38" stroke-width="2"/><g fill="#f2c84b"><circle cx="80" cy="220" r="7"/><circle cx="360" cy="148" r="6"/><circle cx="596" cy="106" r="6"/><circle cx="820" cy="195" r="6"/><circle cx="348" cy="332" r="6"/><circle cx="592" cy="248" r="6"/><circle cx="826" cy="349" r="6"/></g></svg>
